<svg xmlns="http://www.w3.org/2000/svg" version="1.1" xmlns:xlink="http://www.w3.org/1999/xlink" xmlns:svgjs="http://svgjs.dev/svgjs" width="1440" height="560" preserveAspectRatio="none" viewBox="0 0 1440 560"><g mask="url(&quot;#SvgjsMask1003&quot;)" fill="none"><rect width="1440" height="560" x="0" y="0" fill="rgba(165, 94, 63, 1)"></rect><path d="M68.63 69.66L133.59 107.16L133.59 182.16L68.63 219.66L3.68 182.16L3.68 107.16zM68.63 519.66L133.59 557.16L133.59 632.16L68.63 669.66L3.68 632.16L3.68 557.16zM198.54 69.66L263.5 107.16L263.5 182.16L198.54 219.66L133.59 182.16L133.59 107.16zM198.54 294.66L263.5 332.16L263.5 407.16L198.54 444.66L133.59 407.16L133.59 332.16zM133.59 407.16L198.54 444.66L198.54 519.66L133.59 557.16L68.63 519.66L68.63 444.66zM198.54 519.66L263.5 557.16L263.5 632.16L198.54 669.66L133.59 632.16L133.59 557.16zM263.5 407.16L328.45 444.66L328.45 519.66L263.5 557.16L198.54 519.66L198.54 444.66zM458.36 519.66L523.31 557.16L523.31 632.16L458.36 669.66L393.4 632.16L393.4 557.16zM523.31 407.16L588.26 444.66L588.26 519.66L523.31 557.16L458.36 519.66L458.36 444.66zM588.26 519.66L653.22 557.16L653.22 632.16L588.26 669.66L523.31 632.16L523.31 557.16zM718.17 69.66L783.13 107.16L783.13 182.16L718.17 219.66L653.22 182.16L653.22 107.16zM653.22 182.16L718.17 219.66L718.17 294.66L653.22 332.16L588.26 294.66L588.26 219.66zM718.17 519.66L783.13 557.16L783.13 632.16L718.17 669.66L653.22 632.16L653.22 557.16zM977.99 69.66L1042.94 107.16L1042.94 182.16L977.99 219.66L913.03 182.16L913.03 107.16zM1172.85 -42.84L1237.8 -5.34L1237.8 69.66L1172.85 107.16L1107.89 69.66L1107.89 -5.34zM1237.8 69.66L1302.75 107.16L1302.75 182.16L1237.8 219.66L1172.85 182.16L1172.85 107.16zM1172.85 182.16L1237.8 219.66L1237.8 294.66L1172.85 332.16L1107.89 294.66L1107.89 219.66zM1237.8 519.66L1302.75 557.16L1302.75 632.16L1237.8 669.66L1172.85 632.16L1172.85 557.16zM1302.76 -42.84L1367.71 -5.34L1367.71 69.66L1302.76 107.16L1237.8 69.66L1237.8 -5.34zM1432.66 -42.84L1497.62 -5.34L1497.62 69.66L1432.66 107.16L1367.71 69.66L1367.71 -5.34zM1497.62 69.66L1562.57 107.16L1562.57 182.16L1497.62 219.66L1432.66 182.16L1432.66 107.16zM1497.62 519.66L1562.57 557.16L1562.57 632.16L1497.62 669.66L1432.66 632.16L1432.66 557.16z" stroke="rgba(255, 255, 255, 1)" stroke-width="2"></path><path d="M61.13 69.66 a7.5 7.5 0 1 0 15 0 a7.5 7.5 0 1 0 -15 0zM126.09 107.16 a7.5 7.5 0 1 0 15 0 a7.5 7.5 0 1 0 -15 0zM126.09 182.16 a7.5 7.5 0 1 0 15 0 a7.5 7.5 0 1 0 -15 0zM61.13 219.66 a7.5 7.5 0 1 0 15 0 a7.5 7.5 0 1 0 -15 0zM-3.82 182.16 a7.5 7.5 0 1 0 15 0 a7.5 7.5 0 1 0 -15 0zM-3.82 107.16 a7.5 7.5 0 1 0 15 0 a7.5 7.5 0 1 0 -15 0zM61.13 519.66 a7.5 7.5 0 1 0 15 0 a7.5 7.5 0 1 0 -15 0zM126.09 557.16 a7.5 7.5 0 1 0 15 0 a7.5 7.5 0 1 0 -15 0zM126.09 632.16 a7.5 7.5 0 1 0 15 0 a7.5 7.5 0 1 0 -15 0zM61.13 669.66 a7.5 7.5 0 1 0 15 0 a7.5 7.5 0 1 0 -15 0zM-3.82 632.16 a7.5 7.5 0 1 0 15 0 a7.5 7.5 0 1 0 -15 0zM-3.82 557.16 a7.5 7.5 0 1 0 15 0 a7.5 7.5 0 1 0 -15 0zM191.04 69.66 a7.5 7.5 0 1 0 15 0 a7.5 7.5 0 1 0 -15 0zM256 107.16 a7.5 7.5 0 1 0 15 0 a7.5 7.5 0 1 0 -15 0zM256 182.16 a7.5 7.5 0 1 0 15 0 a7.5 7.5 0 1 0 -15 0zM191.04 219.66 a7.5 7.5 0 1 0 15 0 a7.5 7.5 0 1 0 -15 0zM191.04 294.66 a7.5 7.5 0 1 0 15 0 a7.5 7.5 0 1 0 -15 0zM256 332.16 a7.5 7.5 0 1 0 15 0 a7.5 7.5 0 1 0 -15 0zM256 407.16 a7.5 7.5 0 1 0 15 0 a7.5 7.5 0 1 0 -15 0zM191.04 444.66 a7.5 7.5 0 1 0 15 0 a7.5 7.5 0 1 0 -15 0zM126.09 407.16 a7.5 7.5 0 1 0 15 0 a7.5 7.5 0 1 0 -15 0zM126.09 332.16 a7.5 7.5 0 1 0 15 0 a7.5 7.5 0 1 0 -15 0zM191.04 519.66 a7.5 7.5 0 1 0 15 0 a7.5 7.5 0 1 0 -15 0zM61.13 444.66 a7.5 7.5 0 1 0 15 0 a7.5 7.5 0 1 0 -15 0zM256 557.16 a7.5 7.5 0 1 0 15 0 a7.5 7.5 0 1 0 -15 0zM256 632.16 a7.5 7.5 0 1 0 15 0 a7.5 7.5 0 1 0 -15 0zM191.04 669.66 a7.5 7.5 0 1 0 15 0 a7.5 7.5 0 1 0 -15 0zM320.95 444.66 a7.5 7.5 0 1 0 15 0 a7.5 7.5 0 1 0 -15 0zM320.95 519.66 a7.5 7.5 0 1 0 15 0 a7.5 7.5 0 1 0 -15 0zM450.86 519.66 a7.5 7.5 0 1 0 15 0 a7.5 7.5 0 1 0 -15 0zM515.81 557.16 a7.5 7.5 0 1 0 15 0 a7.5 7.5 0 1 0 -15 0zM515.81 632.16 a7.5 7.5 0 1 0 15 0 a7.5 7.5 0 1 0 -15 0zM450.86 669.66 a7.5 7.5 0 1 0 15 0 a7.5 7.5 0 1 0 -15 0zM385.9 632.16 a7.5 7.5 0 1 0 15 0 a7.5 7.5 0 1 0 -15 0zM385.9 557.16 a7.5 7.5 0 1 0 15 0 a7.5 7.5 0 1 0 -15 0zM515.81 407.16 a7.5 7.5 0 1 0 15 0 a7.5 7.5 0 1 0 -15 0zM580.76 444.66 a7.5 7.5 0 1 0 15 0 a7.5 7.5 0 1 0 -15 0zM580.76 519.66 a7.5 7.5 0 1 0 15 0 a7.5 7.5 0 1 0 -15 0zM450.86 444.66 a7.5 7.5 0 1 0 15 0 a7.5 7.5 0 1 0 -15 0zM645.72 557.16 a7.5 7.5 0 1 0 15 0 a7.5 7.5 0 1 0 -15 0zM645.72 632.16 a7.5 7.5 0 1 0 15 0 a7.5 7.5 0 1 0 -15 0zM580.76 669.66 a7.5 7.5 0 1 0 15 0 a7.5 7.5 0 1 0 -15 0zM710.67 69.66 a7.5 7.5 0 1 0 15 0 a7.5 7.5 0 1 0 -15 0zM775.63 107.16 a7.5 7.5 0 1 0 15 0 a7.5 7.5 0 1 0 -15 0zM775.63 182.16 a7.5 7.5 0 1 0 15 0 a7.5 7.5 0 1 0 -15 0zM710.67 219.66 a7.5 7.5 0 1 0 15 0 a7.5 7.5 0 1 0 -15 0zM645.72 182.16 a7.5 7.5 0 1 0 15 0 a7.5 7.5 0 1 0 -15 0zM645.72 107.16 a7.5 7.5 0 1 0 15 0 a7.5 7.5 0 1 0 -15 0zM710.67 294.66 a7.5 7.5 0 1 0 15 0 a7.5 7.5 0 1 0 -15 0zM645.72 332.16 a7.5 7.5 0 1 0 15 0 a7.5 7.5 0 1 0 -15 0zM580.76 294.66 a7.5 7.5 0 1 0 15 0 a7.5 7.5 0 1 0 -15 0zM580.76 219.66 a7.5 7.5 0 1 0 15 0 a7.5 7.5 0 1 0 -15 0zM710.67 519.66 a7.5 7.5 0 1 0 15 0 a7.5 7.5 0 1 0 -15 0zM775.63 557.16 a7.5 7.5 0 1 0 15 0 a7.5 7.5 0 1 0 -15 0zM775.63 632.16 a7.5 7.5 0 1 0 15 0 a7.5 7.5 0 1 0 -15 0zM710.67 669.66 a7.5 7.5 0 1 0 15 0 a7.5 7.5 0 1 0 -15 0zM970.49 69.66 a7.5 7.5 0 1 0 15 0 a7.5 7.5 0 1 0 -15 0zM1035.44 107.16 a7.5 7.5 0 1 0 15 0 a7.5 7.5 0 1 0 -15 0zM1035.44 182.16 a7.5 7.5 0 1 0 15 0 a7.5 7.5 0 1 0 -15 0zM970.49 219.66 a7.5 7.5 0 1 0 15 0 a7.5 7.5 0 1 0 -15 0zM905.53 182.16 a7.5 7.5 0 1 0 15 0 a7.5 7.5 0 1 0 -15 0zM905.53 107.16 a7.5 7.5 0 1 0 15 0 a7.5 7.5 0 1 0 -15 0zM1165.35 -42.84 a7.5 7.5 0 1 0 15 0 a7.5 7.5 0 1 0 -15 0zM1230.3 -5.34 a7.5 7.5 0 1 0 15 0 a7.5 7.5 0 1 0 -15 0zM1230.3 69.66 a7.5 7.5 0 1 0 15 0 a7.5 7.5 0 1 0 -15 0zM1165.35 107.16 a7.5 7.5 0 1 0 15 0 a7.5 7.5 0 1 0 -15 0zM1100.39 69.66 a7.5 7.5 0 1 0 15 0 a7.5 7.5 0 1 0 -15 0zM1100.39 -5.34 a7.5 7.5 0 1 0 15 0 a7.5 7.5 0 1 0 -15 0zM1295.25 107.16 a7.5 7.5 0 1 0 15 0 a7.5 7.5 0 1 0 -15 0zM1295.25 182.16 a7.5 7.5 0 1 0 15 0 a7.5 7.5 0 1 0 -15 0zM1230.3 219.66 a7.5 7.5 0 1 0 15 0 a7.5 7.5 0 1 0 -15 0zM1165.35 182.16 a7.5 7.5 0 1 0 15 0 a7.5 7.5 0 1 0 -15 0zM1230.3 294.66 a7.5 7.5 0 1 0 15 0 a7.5 7.5 0 1 0 -15 0zM1165.35 332.16 a7.5 7.5 0 1 0 15 0 a7.5 7.5 0 1 0 -15 0zM1100.39 294.66 a7.5 7.5 0 1 0 15 0 a7.5 7.5 0 1 0 -15 0zM1100.39 219.66 a7.5 7.5 0 1 0 15 0 a7.5 7.5 0 1 0 -15 0zM1230.3 519.66 a7.5 7.5 0 1 0 15 0 a7.5 7.5 0 1 0 -15 0zM1295.25 557.16 a7.5 7.5 0 1 0 15 0 a7.5 7.5 0 1 0 -15 0zM1295.25 632.16 a7.5 7.5 0 1 0 15 0 a7.5 7.5 0 1 0 -15 0zM1230.3 669.66 a7.5 7.5 0 1 0 15 0 a7.5 7.5 0 1 0 -15 0zM1165.35 632.16 a7.5 7.5 0 1 0 15 0 a7.5 7.5 0 1 0 -15 0zM1165.35 557.16 a7.5 7.5 0 1 0 15 0 a7.5 7.5 0 1 0 -15 0zM1295.26 -42.84 a7.5 7.5 0 1 0 15 0 a7.5 7.5 0 1 0 -15 0zM1360.21 -5.34 a7.5 7.5 0 1 0 15 0 a7.5 7.5 0 1 0 -15 0zM1360.21 69.66 a7.5 7.5 0 1 0 15 0 a7.5 7.5 0 1 0 -15 0zM1295.26 107.16 a7.5 7.5 0 1 0 15 0 a7.5 7.5 0 1 0 -15 0zM1425.16 -42.84 a7.5 7.5 0 1 0 15 0 a7.5 7.5 0 1 0 -15 0zM1490.12 -5.34 a7.5 7.5 0 1 0 15 0 a7.5 7.5 0 1 0 -15 0zM1490.12 69.66 a7.5 7.5 0 1 0 15 0 a7.5 7.5 0 1 0 -15 0zM1425.16 107.16 a7.5 7.5 0 1 0 15 0 a7.5 7.5 0 1 0 -15 0zM1555.07 107.16 a7.5 7.5 0 1 0 15 0 a7.5 7.5 0 1 0 -15 0zM1555.07 182.16 a7.5 7.5 0 1 0 15 0 a7.5 7.5 0 1 0 -15 0zM1490.12 219.66 a7.5 7.5 0 1 0 15 0 a7.5 7.5 0 1 0 -15 0zM1425.16 182.16 a7.5 7.5 0 1 0 15 0 a7.5 7.5 0 1 0 -15 0zM1490.12 519.66 a7.5 7.5 0 1 0 15 0 a7.5 7.5 0 1 0 -15 0zM1555.07 557.16 a7.5 7.5 0 1 0 15 0 a7.5 7.5 0 1 0 -15 0zM1555.07 632.16 a7.5 7.5 0 1 0 15 0 a7.5 7.5 0 1 0 -15 0zM1490.12 669.66 a7.5 7.5 0 1 0 15 0 a7.5 7.5 0 1 0 -15 0zM1425.16 632.16 a7.5 7.5 0 1 0 15 0 a7.5 7.5 0 1 0 -15 0zM1425.16 557.16 a7.5 7.5 0 1 0 15 0 a7.5 7.5 0 1 0 -15 0z" fill="rgba(255, 255, 255, 1)"></path><path d="M125.97 -34.52L169.28 -9.52L169.28 40.48L125.97 65.48L82.67 40.48L82.67 -9.52zM125.97 115.48L169.28 140.48L169.28 190.48L125.97 215.48L82.67 190.48L82.67 140.48zM169.28 490.48L212.58 515.48L212.58 565.48L169.28 590.48L125.97 565.48L125.97 515.48zM212.58 -34.52L255.88 -9.52L255.88 40.48L212.58 65.48L169.28 40.48L169.28 -9.52zM255.88 490.48L299.19 515.48L299.19 565.48L255.88 590.48L212.58 565.48L212.58 515.48zM299.19 115.48L342.49 140.48L342.49 190.48L299.19 215.48L255.88 190.48L255.88 140.48zM299.19 265.48L342.49 290.48L342.49 340.48L299.19 365.48L255.88 340.48L255.88 290.48zM342.49 490.48L385.79 515.48L385.79 565.48L342.49 590.48L299.19 565.48L299.19 515.48zM429.09 340.48L472.4 365.48L472.4 415.48L429.09 440.48L385.79 415.48L385.79 365.48zM472.4 -34.52L515.7 -9.52L515.7 40.48L472.4 65.48L429.09 40.48L429.09 -9.52zM559 415.48L602.3 440.48L602.3 490.48L559 515.48L515.7 490.48L515.7 440.48zM688.91 40.48L732.21 65.48L732.21 115.48L688.91 140.48L645.61 115.48L645.61 65.48zM645.61 115.48L688.91 140.48L688.91 190.48L645.61 215.48L602.3 190.48L602.3 140.48zM688.91 190.48L732.21 215.48L732.21 265.48L688.91 290.48L645.61 265.48L645.61 215.48zM645.61 415.48L688.91 440.48L688.91 490.48L645.61 515.48L602.3 490.48L602.3 440.48zM688.91 490.48L732.21 515.48L732.21 565.48L688.91 590.48L645.61 565.48L645.61 515.48zM775.51 190.48L818.82 215.48L818.82 265.48L775.51 290.48L732.21 265.48L732.21 215.48zM732.21 415.48L775.51 440.48L775.51 490.48L732.21 515.48L688.91 490.48L688.91 440.48zM818.82 415.48L862.12 440.48L862.12 490.48L818.82 515.48L775.51 490.48L775.51 440.48zM948.72 340.48L992.03 365.48L992.03 415.48L948.72 440.48L905.42 415.48L905.42 365.48zM992.03 -34.52L1035.33 -9.52L1035.33 40.48L992.03 65.48L948.72 40.48L948.72 -9.52zM992.03 115.48L1035.33 140.48L1035.33 190.48L992.03 215.48L948.72 190.48L948.72 140.48zM1035.33 190.48L1078.63 215.48L1078.63 265.48L1035.33 290.48L992.03 265.48L992.03 215.48zM992.03 265.48L1035.33 290.48L1035.33 340.48L992.03 365.48L948.72 340.48L948.72 290.48zM1121.93 490.48L1165.23 515.48L1165.23 565.48L1121.93 590.48L1078.63 565.48L1078.63 515.48zM1165.23 -34.52L1208.54 -9.52L1208.54 40.48L1165.23 65.48L1121.93 40.48L1121.93 -9.52zM1208.54 40.48L1251.84 65.48L1251.84 115.48L1208.54 140.48L1165.23 115.48L1165.23 65.48zM1251.84 -34.52L1295.14 -9.52L1295.14 40.48L1251.84 65.48L1208.54 40.48L1208.54 -9.52zM1295.14 40.48L1338.44 65.48L1338.44 115.48L1295.14 140.48L1251.84 115.48L1251.84 65.48zM1251.84 115.48L1295.14 140.48L1295.14 190.48L1251.84 215.48L1208.54 190.48L1208.54 140.48zM1338.44 -34.52L1381.75 -9.52L1381.75 40.48L1338.44 65.48L1295.14 40.48L1295.14 -9.52zM1338.44 415.48L1381.75 440.48L1381.75 490.48L1338.44 515.48L1295.14 490.48L1295.14 440.48zM1425.05 -34.52L1468.35 -9.52L1468.35 40.48L1425.05 65.48L1381.75 40.48L1381.75 -9.52z" stroke="rgba(255, 255, 255, 1)" stroke-width="2"></path></g><defs><mask id="SvgjsMask1003"><rect width="1440" height="560" fill="#ffffff"></rect></mask></defs></svg>